<?xml version="1.0" standalone="no"?>
<!DOCTYPE svg PUBLIC "-//W3C//DTD SVG 20010904//EN"
 "http://www.w3.org/TR/2001/REC-SVG-20010904/DTD/svg10.dtd">
<svg version="1.0" xmlns="http://www.w3.org/2000/svg"
 width="167.000000pt" height="215.000000pt" viewBox="0 0 167.000000 215.000000"
 preserveAspectRatio="xMidYMid meet">
<metadata>
Created by potrace 1.10, written by Peter Selinger 2001-2011
</metadata>
<g transform="translate(0.000000,215.000000) scale(0.100000,-0.100000)"
fill="#000000" stroke="none">
<path d="M1415 2023 c-17 -9 -73 -57 -125 -108 -52 -51 -106 -98 -119 -104
-16 -9 -44 -11 -95 -5 -104 11 -356 8 -391 -6 -26 -10 -31 -8 -46 11 -17 23
-39 19 -39 -7 0 -32 -30 -9 -131 98 l-106 112 -59 1 c-73 0 -76 -4 -100 -175
-22 -157 -22 -174 0 -290 10 -52 22 -123 26 -157 5 -35 14 -72 20 -82 17 -33
11 -115 -16 -218 -23 -84 -26 -110 -20 -184 3 -47 11 -110 17 -139 15 -71 7
-110 -40 -189 -29 -49 -43 -86 -51 -141 -19 -115 -23 -168 -16 -206 7 -36 26
-47 26 -14 0 60 61 136 99 122 8 -3 46 -37 85 -77 52 -52 92 -82 149 -110 42
-21 79 -36 82 -33 3 2 -20 26 -50 52 -53 45 -95 108 -95 141 0 25 17 17 39
-17 23 -38 56 -68 73 -68 7 0 -2 15 -19 33 -37 37 -55 78 -55 125 0 43 3 45
41 26 41 -20 52 -11 14 12 -42 27 -73 56 -73 70 0 9 17 3 47 -16 57 -34 93
-46 93 -31 0 6 -4 11 -8 11 -5 0 -38 18 -75 40 -36 22 -70 40 -74 40 -4 0 -8
-16 -9 -35 0 -19 3 -35 8 -35 18 0 6 -19 -15 -23 -18 -4 -17 -5 7 -6 23 -1 27
-4 21 -19 -5 -9 -10 -32 -13 -49 -2 -18 -8 -33 -12 -33 -12 0 -19 -39 -9 -46
13 -8 11 -34 -3 -32 -7 2 -17 12 -24 23 -6 11 -16 19 -23 17 -7 -1 -22 9 -33
23 -23 29 -74 59 -88 50 -5 -3 -20 -3 -34 1 -24 6 -25 9 -22 64 4 61 12 84 27
75 5 -4 9 6 9 21 0 15 12 42 26 61 22 29 26 45 27 106 1 82 -3 117 -15 133 -8
11 -4 57 7 85 3 10 2 20 -4 24 -18 11 -13 45 7 45 12 0 14 2 4 8 -13 9 -7 92
8 92 4 0 7 14 8 32 0 17 6 34 12 38 6 4 8 15 4 26 -4 14 -3 15 4 6 7 -11 10
-10 16 3 8 23 8 27 -4 20 -5 -3 -10 0 -10 8 0 8 15 21 33 28 17 7 35 14 39 16
13 8 -5 -42 -19 -50 -7 -4 -13 -19 -13 -33 0 -18 -7 -28 -21 -31 -21 -6 -21
-6 2 -24 19 -14 22 -20 12 -30 -17 -17 -16 -29 2 -29 8 0 15 -8 15 -19 0 -24
23 -43 44 -35 11 4 16 2 14 -7 -2 -8 4 -13 14 -11 13 2 16 -4 14 -23 -2 -14
-8 -31 -14 -37 -14 -14 -35 0 -27 19 5 14 3 14 -11 2 -10 -8 -12 -15 -5 -17
13 -4 15 -32 2 -32 -11 0 21 -96 38 -113 14 -14 14 -11 1 33 -6 19 -7 48 -4
64 5 25 9 27 35 22 22 -4 29 -2 29 10 0 11 6 15 20 11 34 -9 23 17 -29 66 -31
30 -59 47 -74 47 -22 0 -26 6 -31 44 -5 34 -2 55 13 90 13 26 21 66 21 96 0
28 7 67 15 87 18 43 18 44 2 38 -7 -3 -23 -27 -36 -53 -14 -26 -31 -55 -39
-64 -16 -19 -52 -25 -52 -9 0 21 81 138 110 159 31 23 41 62 16 62 -8 0 -17
-8 -20 -17 -4 -10 -20 -28 -38 -40 -40 -28 -63 -17 -79 37 -13 44 -7 59 16 40
27 -22 17 8 -15 48 -28 35 -65 130 -54 141 2 3 10 -1 16 -7 21 -21 24 -13 17
46 -20 156 -3 252 44 252 36 0 119 -79 172 -165 25 -40 53 -76 60 -79 8 -3 15
-17 15 -31 0 -15 -4 -24 -10 -20 -11 7 -16 -3 -25 -57 -7 -47 -20 -48 -40 -5
-8 17 -24 44 -36 58 -17 21 -19 31 -10 45 6 11 11 13 11 7 0 -19 20 -16 20 2
0 27 -30 75 -46 75 -8 0 -17 -13 -20 -30 -4 -16 -10 -30 -14 -30 -14 0 -20 31
-10 49 7 14 4 21 -15 31 -31 16 -33 14 -44 -43 -10 -55 -2 -103 33 -209 14
-42 23 -84 20 -92 -11 -28 22 -8 35 21 10 22 9 31 -7 52 -16 23 -31 66 -46
142 -7 33 15 57 33 35 7 -8 13 -27 14 -43 1 -16 10 -32 22 -38 11 -6 20 -20
20 -31 0 -12 6 -28 14 -37 12 -15 11 -17 -8 -17 -24 0 -27 -12 -7 -29 11 -10
17 -7 30 10 l15 22 6 -25 c3 -13 5 -28 3 -34 -2 -5 2 -10 7 -12 6 -1 14 10 19
25 5 16 24 50 43 76 36 51 38 73 3 42 -34 -31 -22 2 16 44 71 79 184 91 301
33 98 -49 109 -49 153 -2 35 38 42 41 72 35 40 -9 98 -36 98 -46 0 -4 35 -42
77 -83 55 -55 79 -73 85 -64 4 7 8 18 8 23 0 6 16 30 35 54 19 24 35 48 35 52
0 5 3 8 8 8 36 -6 60 48 39 89 -14 29 -61 46 -89 31 -28 -15 -21 -26 13 -21
45 7 33 -18 -17 -35 -21 -8 -46 -21 -54 -29 -13 -15 -13 -16 10 -10 24 6 24 5
4 -5 -12 -6 -27 -22 -33 -35 -13 -29 -31 -31 -38 -4 -3 11 -14 20 -24 20 -53
0 3 123 91 201 77 67 93 75 125 61 56 -26 78 -147 55 -304 -14 -96 -22 -115
-52 -120 -12 -2 -23 -9 -26 -15 -2 -9 5 -11 30 -6 l33 6 -16 -24 c-26 -39 -47
-36 -68 11 -17 39 -39 43 -25 5 6 -14 3 -16 -14 -10 -37 11 -24 -12 28 -50 52
-38 76 -85 68 -135 -3 -23 -4 -23 -20 -6 -27 26 -22 14 18 -45 35 -52 36 -57
32 -130 -2 -62 -8 -83 -30 -116 -31 -48 -27 -64 8 -25 14 17 23 22 24 13 0
-20 -57 -138 -71 -146 -8 -6 -8 -9 0 -15 8 -4 5 -14 -9 -32 -11 -15 -20 -31
-20 -37 0 -23 17 -10 44 34 16 25 33 45 38 45 6 0 7 -25 3 -62 -13 -126 -37
-175 -79 -164 -71 20 -73 19 -33 -15 42 -35 67 -76 67 -110 0 -12 -18 -39 -40
-61 -31 -32 -35 -39 -17 -33 12 4 35 9 50 12 24 5 28 9 22 30 -5 21 -3 24 17
21 16 -2 27 -15 38 -46 9 -24 21 -47 27 -50 13 -8 6 -58 -11 -70 -6 -5 -26
-12 -43 -15 -29 -6 -33 -4 -33 14 0 23 -19 21 -31 -2 -4 -8 -24 -48 -44 -91
-20 -42 -52 -95 -72 -117 -19 -23 -33 -46 -31 -51 6 -19 76 49 122 118 45 68
76 93 131 106 16 4 36 12 42 18 24 20 14 81 -26 154 -37 67 -39 76 -36 142 2
38 9 90 16 113 7 24 14 118 15 209 2 91 5 202 6 247 2 63 0 84 -11 88 -8 3
-11 14 -8 26 3 12 -1 32 -10 45 -11 17 -13 34 -8 56 4 18 6 61 5 95 0 34 6 86
14 114 11 35 16 93 16 173 0 106 -3 127 -24 171 -37 79 -73 102 -121 78z
m-425 -248 c12 -14 6 -35 -10 -35 -5 0 -20 4 -35 10 -22 8 -24 12 -13 25 17
19 42 19 58 0z m454 -17 c-10 -13 -22 -25 -25 -28 -3 -3 -8 -13 -12 -23 -4
-10 -11 -16 -16 -13 -5 3 -14 -7 -19 -24 -8 -21 -16 -28 -26 -24 -24 9 -18 30
19 64 73 67 118 93 79 48z m-1161 -359 c-3 -10 0 -19 6 -19 6 0 11 8 11 17 0
14 3 14 12 5 9 -9 10 -15 2 -20 -6 -4 -14 -16 -19 -27 -8 -20 -8 -20 -13 0 -2
11 -8 24 -13 30 -15 15 -11 45 5 39 8 -3 12 -13 9 -25z m1217 -803 c0 -17 -2
-18 -10 -6 -5 8 -10 11 -10 6 0 -6 -5 -5 -11 1 -7 7 -9 19 -5 28 5 14 9 15 21
5 8 -7 15 -22 15 -34z"/>
<path d="M713 1496 c-37 -37 -34 -46 12 -46 17 0 40 -7 51 -15 27 -20 57 -18
87 5 14 11 32 20 41 20 18 0 22 -25 6 -35 -6 -4 -8 -11 -4 -16 11 -19 34 13
34 48 0 26 -5 36 -20 40 -11 3 -20 9 -20 13 0 14 -32 21 -45 10 -9 -8 -15 -8
-20 0 -3 5 -25 10 -48 10 -34 0 -48 -6 -74 -34z m107 4 c29 -16 14 -43 -19
-35 -34 9 -36 12 -21 30 15 18 16 18 40 5z"/>
<path d="M1170 1510 c0 -9 6 -23 13 -32 16 -21 83 -41 112 -34 19 5 27 1 37
-20 13 -26 30 -34 35 -17 2 5 -21 34 -51 66 -52 54 -57 57 -100 55 -35 -1 -46
-5 -46 -18z"/>
<path d="M627 1452 c-20 -21 -37 -43 -37 -50 0 -13 51 -42 76 -42 16 0 16 1 1
18 -20 21 -21 45 -6 73 20 39 3 39 -34 1z"/>
<path d="M1130 1417 c-34 -12 -35 -14 -38 -68 -3 -64 8 -78 75 -98 53 -15 70
-41 48 -74 -14 -23 -54 -47 -76 -47 -6 0 -29 -9 -52 -19 -116 -53 -230 -58
-276 -12 -29 29 -46 26 -70 -13 -25 -39 -27 -58 -6 -50 18 7 21 -27 5 -57 -9
-15 -5 -28 20 -64 33 -49 61 -68 88 -62 12 2 6 9 -20 22 -35 17 -52 45 -28 45
5 0 65 -27 134 -59 68 -32 139 -62 157 -66 41 -10 106 -7 148 5 28 8 29 7 18
-11 -6 -10 -27 -24 -46 -30 -45 -15 -183 -7 -213 13 -12 8 -49 17 -80 20 -37
3 -65 11 -78 23 -17 15 -23 17 -29 6 -7 -11 -11 -9 -19 5 -6 10 -14 15 -19 11
-4 -5 7 -21 25 -35 27 -23 36 -41 55 -117 13 -49 33 -108 44 -130 23 -45 60
-82 70 -72 4 4 -2 14 -13 21 -24 18 -14 29 17 18 36 -14 109 11 146 50 18 19
43 60 57 93 19 48 31 64 61 80 45 24 92 86 101 132 7 37 -2 56 -16 33 -21 -33
-17 0 7 65 61 169 68 200 52 247 l-14 43 -3 -73 c-2 -40 -6 -72 -10 -70 -68
33 -88 45 -94 53 -16 21 -7 47 21 63 32 18 58 61 43 71 -4 3 -8 22 -8 41 1 31
-4 37 -37 54 -49 24 -104 29 -147 13z m127 -24 c3 -7 -10 -13 -33 -15 -21 -2
-39 -9 -42 -17 -3 -10 3 -12 26 -6 33 7 72 -11 72 -33 0 -7 -5 -10 -11 -6 -8
5 -10 -1 -6 -18 10 -39 -14 -54 -49 -31 -22 14 -24 19 -11 21 14 3 12 7 -10
28 -14 13 -31 24 -38 24 -12 0 -28 40 -20 48 3 3 11 -1 19 -7 12 -10 17 -8 26
9 9 16 19 20 42 18 17 -2 33 -8 35 -15z m-82 -83 c7 -12 -42 -33 -56 -24 -5 3
-9 12 -9 20 0 16 55 20 65 4z m80 -180 c3 -5 17 -10 30 -10 28 0 44 -26 36
-57 -4 -16 -10 -20 -20 -13 -10 6 -19 3 -28 -8 -11 -15 -14 -15 -23 -2 -9 12
-10 11 -5 -6 4 -16 0 -23 -13 -26 -30 -8 -82 3 -82 18 0 8 -9 13 -22 11 -26
-2 -34 21 -16 46 11 14 45 24 97 26 7 1 11 7 7 16 -6 17 29 22 39 5z m-451
-65 c10 -8 38 -17 62 -21 47 -7 55 -17 27 -33 -17 -10 -16 -12 7 -30 27 -22
64 -35 54 -20 -3 5 1 9 8 9 7 0 14 11 14 25 1 14 -2 25 -7 25 -5 0 -9 4 -9 9
0 13 58 19 70 7 13 -13 13 -46 0 -46 -5 0 -10 5 -10 10 0 6 -5 10 -11 10 -6 0
-9 -10 -7 -22 2 -15 9 -22 21 -22 9 1 17 -4 17 -11 0 -7 7 -18 15 -25 14 -12
14 -15 -1 -31 -20 -22 -4 -25 26 -6 17 10 22 9 30 -3 10 -16 12 -16 73 -18 31
-2 38 -5 35 -19 -2 -12 -11 -17 -23 -14 -70 12 -118 12 -127 0 -8 -11 -9 -10
-4 4 4 11 0 17 -12 18 -25 2 -35 4 -55 13 -10 5 -20 6 -24 3 -7 -8 -63 21 -63
33 0 5 -8 9 -17 8 -17 0 -71 17 -103 32 -11 5 -15 25 -16 69 0 33 2 61 5 61 3
0 14 -7 25 -15z m293 -48 c17 -21 81 -47 116 -47 9 0 32 14 50 30 42 36 47 37
47 5 0 -37 -51 -65 -118 -65 -38 0 -54 4 -59 15 -5 13 -8 13 -20 -5 -21 -30
-31 -25 -43 21 -6 22 -14 47 -17 55 -8 23 24 17 44 -9z m-140 -3 c7 -19 -9
-37 -30 -32 -11 2 -12 9 -6 26 10 26 27 29 36 6z m293 -99 c0 -14 -45 -29 -60
-20 -22 13 -8 30 25 32 23 1 35 -3 35 -12z m37 -57 c-7 -14 -19 -22 -29 -20
-24 5 -23 23 3 51 19 20 23 21 30 8 5 -9 4 -24 -4 -39z m-366 -108 c13 -7 19
-7 19 0 0 16 30 12 36 -5 4 -8 18 -15 33 -15 52 0 101 -13 101 -26 0 -7 9 -16
21 -19 19 -6 22 -32 2 -28 -5 1 -17 -16 -27 -38 -13 -30 -23 -39 -42 -39 -13
0 -24 -5 -24 -11 0 -6 -9 -9 -20 -6 -11 3 -18 1 -15 -4 3 -4 -10 -8 -30 -7
-37 1 -66 25 -70 55 -1 10 -6 30 -13 45 -6 15 -13 45 -16 67 -5 44 6 52 45 31z"/>
<path d="M432 1321 c-7 -21 -12 -53 -12 -72 0 -30 1 -32 16 -18 17 18 32 129
17 129 -5 0 -15 -17 -21 -39z"/>
<path d="M655 1330 c-10 -17 13 -30 53 -30 37 0 43 15 10 23 -13 2 -30 8 -39
11 -10 4 -20 2 -24 -4z"/>
<path d="M878 1285 c-3 -39 3 -70 18 -92 17 -27 40 -32 25 -6 -5 9 -7 40 -4
68 5 47 4 51 -16 51 -14 0 -22 -7 -23 -21z"/>
<path d="M646 1131 c-10 -16 6 -42 21 -37 8 3 17 6 19 6 2 0 4 5 4 10 0 6 -7
10 -16 10 -8 0 -12 5 -9 10 3 6 2 10 -4 10 -5 0 -12 -4 -15 -9z"/>
<path d="M695 1095 c-19 -18 -25 -33 -21 -48 3 -12 6 -28 6 -35 0 -7 5 -10 10
-7 6 3 10 18 10 33 0 15 7 38 16 50 23 34 10 38 -21 7z"/>
<path d="M600 1020 c0 -18 20 -50 31 -50 18 0 5 55 -13 58 -10 2 -18 -2 -18
-8z"/>
<path d="M346 885 c-4 -11 -12 -28 -17 -38 -6 -11 -8 -22 -5 -25 3 -3 6 0 6 6
0 7 5 12 10 12 6 0 10 -9 10 -20 0 -23 27 -70 47 -83 7 -4 13 -13 13 -18 0 -6
7 -17 15 -25 20 -21 19 -30 -7 -54 -23 -21 -36 -90 -16 -90 5 0 8 7 4 15 -5
13 -2 13 20 -1 36 -24 41 -10 8 21 -28 24 -28 25 -10 40 21 16 46 5 46 -20 0
-7 7 -18 15 -25 12 -10 15 -9 15 5 0 9 3 15 8 13 72 -38 152 -58 152 -39 0 6
-5 11 -11 11 -34 0 -215 158 -257 225 -14 22 -29 56 -32 75 -6 29 -8 32 -14
15z"/>
<path d="M720 865 c0 -41 74 -215 92 -215 12 0 10 19 -7 48 -19 36 -50 109
-65 155 -13 43 -20 47 -20 12z"/>
<path d="M1417 412 c-28 -19 -34 -28 -25 -34 10 -6 6 -15 -17 -33 -16 -14 -36
-25 -44 -25 -11 0 -9 -4 5 -15 10 -8 24 -14 29 -15 9 0 35 33 70 89 6 8 16 20
22 26 7 5 9 15 5 21 -5 8 -19 3 -45 -14z"/>
</g>
</svg>
